<svg xmlns="http://www.w3.org/2000/svg" width="32" height="32" viewBox="0 0 32 32" fill="none">
<rect width="32" height="32" rx="7.63256" fill="url(#paint0_linear_427_4870)"/>
<path d="M14.2089 20.3481C13.5692 19.2402 12.8699 18.1629 12.3021 17.0136C11.7202 15.7871 11.5326 14.4187 11.7673 13.1143C12.0021 11.8098 12.6466 10.6398 13.6039 9.78039C14.064 9.39828 14.5589 9.06166 15.0826 8.7747C15.8838 8.3121 16.685 7.84951 17.5021 7.42066C17.6717 7.33001 17.8591 7.27645 18.053 7.26318C18.2469 7.24992 18.4434 7.27723 18.6305 7.34348C18.8177 7.40972 18.9918 7.51354 19.1424 7.64872C19.293 7.78389 19.4169 7.94764 19.5068 8.13015C19.6098 8.30323 19.6787 8.49421 19.7096 8.69167C19.7404 8.88913 19.7325 9.08902 19.6863 9.2794C19.6401 9.46978 19.5566 9.64675 19.4407 9.79972C19.3248 9.9527 19.179 10.0786 19.0119 10.1698C18.3523 10.5778 17.6719 10.9434 17.0033 11.3294C16.5887 11.568 16.187 11.8285 15.7999 12.11C15.2434 12.5399 14.8697 13.1727 14.7494 13.8886C14.6291 14.6045 14.7706 15.3538 15.1472 15.9946C16.3606 18.0963 17.574 20.1981 18.7875 22.2998C18.9205 22.5165 19.003 22.7602 19.0282 23.0107C19.0533 23.2613 19.0204 23.5115 18.9321 23.7406C18.8438 23.9698 18.7026 24.1714 18.5203 24.3288C18.338 24.4861 18.1198 24.5948 17.8837 24.6457C17.5428 24.6954 17.1901 24.6303 16.8775 24.4599C16.5649 24.2896 16.309 24.0229 16.1474 23.6993C15.5012 22.5992 14.8569 21.4706 14.2089 20.3481Z" fill="#BAC8A0"/>
<path d="M14.2089 20.3481C13.5692 19.2402 12.8699 18.1629 12.3021 17.0136C11.7202 15.7871 11.5326 14.4187 11.7673 13.1143C12.0021 11.8098 12.6466 10.6398 13.6039 9.78039C14.064 9.39828 14.5589 9.06166 15.0826 8.7747C15.8838 8.3121 16.685 7.84951 17.5021 7.42066C17.6717 7.33001 17.8591 7.27645 18.053 7.26318C18.2469 7.24992 18.4434 7.27723 18.6305 7.34348C18.8177 7.40972 18.9918 7.51354 19.1424 7.64872C19.293 7.78389 19.4169 7.94764 19.5068 8.13015C19.6098 8.30323 19.6787 8.49421 19.7096 8.69167C19.7404 8.88913 19.7325 9.08902 19.6863 9.2794C19.6401 9.46978 19.5566 9.64675 19.4407 9.79972C19.3248 9.9527 19.179 10.0786 19.0119 10.1698C18.3523 10.5778 17.6719 10.9434 17.0033 11.3294C16.5887 11.568 16.187 11.8285 15.7999 12.11C15.2434 12.5399 14.8697 13.1727 14.7494 13.8886C14.6291 14.6045 14.7706 15.3538 15.1472 15.9946C16.3606 18.0963 17.574 20.1981 18.7875 22.2998C18.9205 22.5165 19.003 22.7602 19.0282 23.0107C19.0533 23.2613 19.0204 23.5115 18.9321 23.7406C18.8438 23.9698 18.7026 24.1714 18.5203 24.3288C18.338 24.4861 18.1198 24.5948 17.8837 24.6457C17.5428 24.6954 17.1901 24.6303 16.8775 24.4599C16.5649 24.2896 16.309 24.0229 16.1474 23.6993C15.5012 22.5992 14.8569 21.4706 14.2089 20.3481Z" fill="#F6EFC2"/>
<defs>
<linearGradient id="paint0_linear_427_4870" x1="23.3758" y1="-0.0968536" x2="-0.0537714" y2="31.9626" gradientUnits="userSpaceOnUse">
<stop stop-color="#113D4F"/>
<stop offset="1" stop-color="#051127"/>
</linearGradient>
</defs>
</svg>